PathFileType	4	(X/Y/Z)	C:\Users\Basilio\Documents\Thesis Gigler\squatting_fais\c3dfiles\041\SLS_pre_back3\markers_experimental.trc
DataRate	CameraRate	NumFrames	NumMarkers	Units	OrigDataRate	OrigDataStartFrame	OrigNumFrames
200.000000	200.000000	4	62	mm	200.000000	1117	1490
Frame#	Time	FHD			LBHD			RBHD			C7			T10			CLAV			LSHO			LUUPA			LMUPA			LDUPA			LLEP			LMEP			LRAD			LUL			LRFIN			RSHO			RUPA1			RMUPA			RDUPA			RLEP			RMEP			RRAD			RUL			RUFIN			LASI			RASI			USACR			LSACR			RSACR			LTHI1			LTHI2			LTHI3			LTHI4			LLFC			LMFC			LTIB1			LTIB2			LTIB3			LTIB4			LLMAL			LMMAL			LHEE			LMT1			LMT2			LMT5			RTHI			RTHI2			RTHI3			RTHI4			RLFC			RMFC			RTIB1			RTIB2			RTIB3			RTIB4			RLMAL			RMMAL			RHEE			RMT1			RMT2			RMT5			*61			
		X1	Y1	Z1	X2	Y2	Z2	X3	Y3	Z3	X4	Y4	Z4	X5	Y5	Z5	X6	Y6	Z6	X7	Y7	Z7	X8	Y8	Z8	X9	Y9	Z9	X10	Y10	Z10	X11	Y11	Z11	X12	Y12	Z12	X13	Y13	Z13	X14	Y14	Z14	X15	Y15	Z15	X16	Y16	Z16	X17	Y17	Z17	X18	Y18	Z18	X19	Y19	Z19	X20	Y20	Z20	X21	Y21	Z21	X22	Y22	Z22	X23	Y23	Z23	X24	Y24	Z24	X25	Y25	Z25	X26	Y26	Z26	X27	Y27	Z27	X28	Y28	Z28	X29	Y29	Z29	X30	Y30	Z30	X31	Y31	Z31	X32	Y32	Z32	X33	Y33	Z33	X34	Y34	Z34	X35	Y35	Z35	X36	Y36	Z36	X37	Y37	Z37	X38	Y38	Z38	X39	Y39	Z39	X40	Y40	Z40	X41	Y41	Z41	X42	Y42	Z42	X43	Y43	Z43	X44	Y44	Z44	X45	Y45	Z45	X46	Y46	Z46	X47	Y47	Z47	X48	Y48	Z48	X49	Y49	Z49	X50	Y50	Z50	X51	Y51	Z51	X52	Y52	Z52	X53	Y53	Z53	X54	Y54	Z54	X55	Y55	Z55	X56	Y56	Z56	X57	Y57	Z57	X58	Y58	Z58	X59	Y59	Z59	X60	Y60	Z60	X61	Y61	Z61	X62	Y62	Z62	

1118	5.585	-74.56773376464845	1714.461059570313	-1129.41943359375	-258.2498779296876	1650.504272460938	-1191.671264648438	-232.4210662841797	1669.488891601563	-1041.581787109375	-305.6844177246094	1529.87744140625	-1110.635864257813	-416.1369628906251	1243.13134765625	-1079.559936523438	-162.4183349609375	1443.945556640625	-1108.170654296875	-226.9412231445313	1521.984252929688	-1248.515869140625	-156.8006896972657	1492.4931640625	-1399.522216796875	-109.5374221801758	1506.066528320313	-1394.23779296875	-113.7081451416016	1486.469116210938	-1452.732788085938	-77.27080535888673	1482.353759765625	-1483.247192382813	-34.15507888793946	1411.720092773438	-1458.077392578125	186.402328491211	1493.731689453125	-1562.867065429688	154.2653350830078	1506.462524414063	-1628.614990234375	249.3694000244141	1533.502807617188	-1584.251342773438	-223.0446166992188	1541.425537109375	-986.4366455078127	-95.30781555175783	1536.461303710938	-854.1850585937502	-71.7097625732422	1556.71728515625	-893.9010009765627	-26.54401016235352	1554.5478515625	-854.0595703125002	18.71554183959961	1557.61083984375	-850.9986572265627	38.82499694824219	1475.1728515625	-862.732116699219	281.5029602050782	1545.100830078125	-912.3924560546877	284.1672363281251	1572.906616210938	-842.428405761719	361.4863586425782	1564.501708984375	-926.821960449219	-286.5096740722657	1018.63525390625	-1157.002685546875	-328.5896606445313	1018.09130859375	-937.3840332031252	-457.7154541015626	1137.110717773438	-1075.434692382813	-474.0205688476564	1114.168334960938	-1105.280395507813	-484.8595275878907	1115.015625	-1050.806884765625	-376.5918884277344	821.7088623046877	-1229.005859375	-328.9164428710938	753.6484375000001	-1211.96875	-285.6543884277344	765.4896850585939	-1194.179321289063	-348.4284362792969	696.6252441406251	-1198.899169921875	-304.0672912597657	529.3463134765626	-1159.346435546875	-317.5845642089844	521.0038452148439	-1043.080810546875	-292.8487548828126	342.1841125488282	-1087.748046875	-332.9077148437501	297.8173217773438	-1153.935302734375	-297.6406860351563	293.3869934082032	-1121.864624023438	-313.9083862304688	218.9562683105469	-1086.18505859375	-372.0470581054688	127.2067260742188	-1129.057983398438	-346.4739990234376	133.689697265625	-1042.876586914063	-442.0164184570314	110.9356307983399	-1094.3359375	-239.7224884033204	60.66478347778322	-1048.155639648438	-227.4906768798829	58.49061203002931	-1092.530883789063	-270.9690246582032	46.27691268920899	-1150.219482421875	-504.6582336425782	781.9570922851565	-883.3584594726565	-477.6222534179689	721.3976440429689	-877.473571777344	-445.591522216797	715.8073730468751	-880.053649902344	-519.4491577148439	648.9223022460939	-894.1306762695315	-552.7103881835939	550.9837646484376	-898.074401855469	-533.0997924804689	518.6731567382814	-1008.958190917969	-682.7365722656251	452.9164428710939	-927.335632324219	-784.664001464844	504.0957946777345	-936.8423461914065	-770.169128417969	459.7371826171876	-932.700622558594	-800.6412353515627	419.7845153808595	-965.264831542969	-932.582458496094	425.0149536132814	-977.063415527344	-883.9079589843752	410.839569091797	-1045.68896484375	-983.5522460937502	461.5504150390626	-1036.132690429688	-880.1191406250002	269.7593383789063	-1042.680786132813	-891.5590820312502	259.4227905273438	-991.2720947265627	-945.6544189453127	279.8564758300782	-958.5569458007815	-4217.247558593751	853.192321777344	-3944.687255859376	
1119	5.59	-74.84632873535158	1716.595336914063	-1129.1357421875	-259.1073913574219	1652.840942382813	-1191.530395507813	-233.2625122070313	1671.77001953125	-1041.252563476563	-306.4255371093751	1531.7421875	-1110.412475585938	-416.1082458496095	1244.532836914063	-1079.9287109375	-163.7680206298828	1446.124267578125	-1108.224731445313	-227.266586303711	1523.93896484375	-1248.938842773438	-158.2250366210938	1494.388671875	-1399.834106445313	-111.0540390014649	1507.893920898438	-1394.7509765625	-114.9188919067383	1488.347534179688	-1453.059204101563	-78.63857269287111	1484.06494140625	-1483.7529296875	-35.95993041992188	1413.301147460938	-1458.665283203125	184.4877624511719	1494.845336914063	-1563.6025390625	152.7920837402344	1507.787719726563	-1629.298217773438	248.1561584472657	1534.37890625	-1584.992797851563	-223.4067535400391	1543.361572265625	-986.3699951171877	-95.67160034179689	1537.656372070313	-853.7920532226565	-71.67520904541017	1558.225952148438	-893.7664794921877	-27.1180820465088	1556.119750976563	-853.7994384765627	18.03177452087403	1558.987670898438	-850.5505371093752	37.67048263549805	1476.361572265625	-861.8301391601565	280.3882751464844	1546.46240234375	-912.1314086914065	283.6678466796876	1573.943115234375	-841.9654541015627	360.7876892089844	1565.136596679688	-926.463806152344	-285.6762084960938	1020.333374023438	-1157.270629882813	-327.5892639160157	1020.123107910156	-937.627380371094	-457.0263671875001	1138.452026367188	-1075.531127929688	-473.3100585937501	1115.510986328125	-1105.32958984375	-483.996551513672	1116.526123046875	-1050.886840820313	-376.9977722167969	822.9323730468752	-1229.053100585938	-329.4731445312501	754.2839355468751	-1212.037475585938	-286.5049133300782	766.0997924804689	-1194.418701171875	-349.9320678710938	697.4844360351564	-1198.361694335938	-306.3238830566407	529.9552001953126	-1159.769775390625	-319.7314453125001	521.1638183593751	-1043.585327148438	-294.1511535644532	342.9966125488282	-1088.060791015625	-334.1914367675782	298.5246276855469	-1154.13818359375	-298.2661437988282	294.0624084472657	-1121.984008789063	-314.5627136230469	219.2579956054688	-1086.4765625	-372.1773376464844	127.2972030639649	-1129.189208984375	-346.4623107910157	133.8469848632813	-1043.064208984375	-442.1761474609376	111.0776977539063	-1094.314575195313	-239.774887084961	60.67873382568361	-1048.259033203125	-227.5098876953126	58.53208541870119	-1092.578002929688	-271.0494995117188	46.28690338134766	-1150.233276367188	-503.3202514648439	783.740905761719	-882.9906005859377	-475.917205810547	723.0703125000001	-877.4118652343752	-443.9594726562501	717.5382080078126	-880.1549072265627	-517.8326416015626	650.4857177734376	-893.8931274414065	-551.3220825195314	552.5109252929689	-897.7027587890627	-531.5339355468751	520.1101684570314	-1008.561462402344	-681.5728759765626	454.3312988281251	-927.794128417969	-783.1804809570315	505.3049621582032	-936.5822753906252	-768.6028442382815	461.1132202148439	-932.315124511719	-798.8612060546877	421.2516479492189	-964.8271484375002	-931.0706176757815	425.958221435547	-976.727722167969	-882.427185058594	411.7374267578126	-1045.199340820313	-982.1020507812502	462.5130004882814	-1035.867919921875	-878.1262817382815	270.6531677246094	-1041.854370117188	-889.9400634765627	260.3620300292969	-990.629333496094	-944.0903320312502	281.0854492187501	-957.7264404296877	-4216.818847656251	853.085388183594	-3944.533203125001	
1120	5.595	-76.33404541015626	1718.873413085938	-1128.830444335938	-260.1780395507813	1655.0380859375	-1191.138305664063	-234.0918731689454	1673.843505859375	-1040.897338867188	-307.0885620117188	1533.412353515625	-1110.184448242188	-415.5079650878907	1245.879272460938	-1079.990966796875	-164.1343231201172	1448.354858398438	-1108.35693359375	-228.7361755371094	1525.98974609375	-1248.702880859375	-159.4432525634766	1496.457153320313	-1399.986206054688	-112.186264038086	1509.625	-1395.035400390625	-116.2867507934571	1490.14501953125	-1453.386108398438	-80.2771682739258	1485.862670898438	-1484.218994140625	-37.41881179809571	1414.782958984375	-1459.384887695313	183.1444091796875	1496.046630859375	-1564.223022460938	151.4554595947266	1509.063842773438	-1630.027099609375	246.537338256836	1535.49169921875	-1585.627075195313	-224.2953643798829	1545.021118164063	-985.8039550781252	-96.631462097168	1539.362060546875	-853.6398925781252	-72.12512207031251	1559.605224609375	-893.4882812500002	-27.93528938293458	1557.343017578125	-853.3458251953127	17.19250679016114	1559.878295898438	-850.0700683593752	36.45349121093751	1477.417602539063	-861.328308105469	279.9291992187501	1547.000122070313	-911.8902587890627	283.1245422363282	1574.542846679688	-841.7153320312502	360.2622375488282	1565.835083007813	-926.1464843750002	-284.6220703125001	1021.200439453125	-1157.310180664063	-326.5906066894532	1021.950500488281	-937.567810058594	-456.0612182617189	1139.716430664063	-1075.732788085938	-472.6333923339845	1116.825805664063	-1105.397094726563	-483.1072082519532	1117.838012695313	-1050.708374023438	-377.5108032226563	824.0171508789065	-1229.178588867188	-330.8166503906251	755.2103881835939	-1212.394409179688	-287.2175598144532	766.6906738281251	-1194.669555664063	-351.1392822265626	698.4345092773439	-1198.4189453125	-308.3902893066407	530.3768310546876	-1160.140502929688	-321.9757995605469	521.7858276367189	-1043.832885742188	-295.4852905273438	343.3390197753907	-1088.486328125	-334.8987426757813	298.3757934570313	-1154.521606445313	-299.9670410156251	294.5961914062501	-1122.1328125	-315.2197265625001	219.7037506103516	-1086.731689453125	-372.2678833007813	127.3327331542969	-1129.204467773438	-346.4884948730469	133.96484375	-1043.208374023438	-442.2224426269532	111.151107788086	-1094.31689453125	-239.8448944091797	60.70067977905275	-1048.258056640625	-227.5518646240235	58.48777770996095	-1092.53955078125	-271.0685424804688	46.29414367675782	-1150.28564453125	-501.2877197265626	785.065124511719	-883.3099365234377	-474.5838012695314	724.7793579101564	-876.9099731445315	-442.5118713378907	719.0982055664064	-880.0283203125002	-516.1781616210939	652.0110473632814	-893.651306152344	-549.7751464843751	554.0392456054689	-897.4978637695315	-530.2518920898439	521.8229370117189	-1008.400390625	-680.0296020507814	455.6279602050782	-926.9409790039065	-781.7043457031252	506.6404113769532	-936.3707275390627	-766.9466552734376	462.3448791503907	-932.0203857421877	-797.4312133789065	421.9477844238282	-964.6644287109377	-929.612243652344	427.0582885742189	-976.281433105469	-880.910095214844	412.8566284179689	-1044.954956054688	-980.5115966796877	463.3352050781251	-1035.620483398438	-876.7859497070315	271.7764587402344	-1041.428833007813	-888.1318359375002	261.4036560058594	-989.9516601562502	-942.4042968750002	281.8911132812501	-957.2076416015627	-4216.849121093751	853.1065673828127	-3944.737060546876	
1121	5.600000000000001	-76.91268157958986	1721.08740234375	-1128.7177734375	-260.9189147949219	1657.07861328125	-1190.864624023438	-235.0295104980469	1675.717895507813	-1040.454956054688	-307.8177490234376	1535.195922851563	-1110.002563476563	-415.4585876464845	1247.119873046875	-1080.355346679688	-164.6434173583985	1450.466918945313	-1108.652587890625	-229.8787078857422	1527.918212890625	-1248.760864257813	-160.7263641357422	1498.32470703125	-1400.17919921875	-113.6062393188477	1511.556396484375	-1395.412353515625	-117.9239807128907	1492.02587890625	-1453.704711914063	-81.54695892333986	1487.470336914063	-1484.48681640625	-39.12309265136719	1416.450317382813	-1459.894165039063	181.6288604736328	1497.371337890625	-1564.704833984375	149.468017578125	1510.41650390625	-1630.603759765625	245.2151794433594	1536.408203125	-1586.32958984375	-225.022445678711	1546.615844726563	-985.571716308594	-96.7846374511719	1540.569458007813	-853.1192626953127	-73.09124755859376	1560.8681640625	-892.8121337890627	-28.61876869201661	1558.32275390625	-852.9035644531252	16.60601806640625	1561.190063476563	-849.6295166015627	36.48836898803712	1478.541870117188	-861.3594360351565	279.1450500488282	1547.729125976563	-911.424987792969	282.6428222656251	1575.385986328125	-841.4193115234377	359.6966247558594	1566.389282226563	-925.8279418945315	-283.8597412109376	1022.334411621094	-1157.365600585938	-325.7176208496094	1023.319519042969	-937.4681396484377	-455.4008178710939	1141.066162109375	-1075.936767578125	-471.8540039062501	1117.9482421875	-1105.428100585938	-482.3003845214845	1119.177856445313	-1050.87646484375	-377.8443298339844	825.0715332031252	-1229.273071289063	-331.5190124511719	755.8982543945314	-1212.703735351563	-287.7034606933594	766.9807739257814	-1194.98046875	-352.1936950683594	699.2128295898439	-1199.424194335938	-310.5052795410157	530.8112792968751	-1160.545532226563	-324.0264282226563	522.1777954101564	-1044.181274414063	-296.5787658691407	343.6849670410157	-1088.861206054688	-336.3926696777344	298.6761779785157	-1154.61474609375	-300.3146667480469	294.8596496582032	-1122.605346679688	-315.8137817382813	220.1768646240235	-1086.960327148438	-372.4010314941407	127.3577957153321	-1129.203247070313	-346.4727172851563	134.1233520507813	-1043.379760742188	-442.249237060547	111.1691284179688	-1094.316528320313	-239.8741760253907	60.74543762207033	-1048.305419921875	-227.5588989257813	58.59423828125001	-1092.6005859375	-271.0487670898438	46.21811676025391	-1150.331420898438	-500.0589294433595	786.4675292968752	-882.8213500976565	-472.8778686523439	726.1384277343751	-876.7053222656252	-440.9358825683595	720.8101196289064	-879.8721923828127	-514.7756347656251	653.5125732421876	-893.0360107421877	-548.4541625976564	555.3192749023439	-897.0906982421877	-528.7852172851564	523.0029907226564	-1008.114318847656	-678.5314941406251	456.9060363769532	-926.2251586914065	-780.2695922851565	507.8951110839845	-936.069030761719	-765.6536254882814	463.6769104003907	-931.5229492187502	-795.8157348632815	423.228240966797	-964.1152954101565	-928.148132324219	428.1114807128907	-975.8439941406252	-879.1375122070315	413.569793701172	-1044.386962890625	-978.8936157226565	464.2247314453126	-1035.33154296875	-875.267272949219	272.5312805175782	-1040.525268554688	-886.6350708007815	262.3593139648438	-989.2766723632815	-940.911804199219	283.1728210449219	-956.4505004882815	-4216.676269531251	853.0076293945315	-3944.514892578126	
